<svg xmlns="http://www.w3.org/2000/svg" version="1.1" xmlns:xlink="http://www.w3.org/1999/xlink" xmlns:svgjs="http://svgjs.dev/svgjs" width="1000" height="1000" viewBox="0 0 1000 1000"><rect width="1000" height="1000" fill="#f9f9f9"></rect><g transform="matrix(0.7,0,0,0.7,149.57576594444572,459.5712115842999)"><svg viewBox="0 0 396 46" data-background-color="#f9f9f9" preserveAspectRatio="xMidYMid meet" height="116" width="1000" xmlns="http://www.w3.org/2000/svg" xmlns:xlink="http://www.w3.org/1999/xlink"><g id="tight-bounds" transform="matrix(1,0,0,1,0.23999526571356,-0.09698983707048114)"><svg viewBox="0 0 395.52 46.193979674140984" height="46.193979674140984" width="395.52"><g><svg viewBox="0 0 395.52 46.193979674140984" height="46.193979674140984" width="395.52"><g><svg viewBox="0 0 395.52 46.193979674140984" height="46.193979674140984" width="395.52"><g><svg viewBox="0 0 395.52 46.193979674140984" height="46.193979674140984" width="395.52"><g><svg viewBox="0 0 395.52 46.193979674140984" height="46.193979674140984" width="395.52"><g transform="matrix(1,0,0,1,0,0)"><svg width="395.52" viewBox="3.8499999046325684 -35.599998474121094 309.92999267578125 36.19999694824219" height="46.193979674140984" data-palette-color="#8bc9fc"><path d="M19.7 0.6Q12.2 0.6 8.03-3.55 3.85-7.7 3.85-15.4L3.85-15.4 3.85-35 11.95-35 11.95-15.7Q11.95-6.3 19.75-6.3L19.75-6.3Q23.55-6.3 25.55-8.58 27.55-10.85 27.55-15.7L27.55-15.7 27.55-35 35.55-35 35.55-15.4Q35.55-7.7 31.38-3.55 27.2 0.6 19.7 0.6L19.7 0.6ZM58.7-35Q63.35-35 66.77-33.45 70.2-31.9 72.05-29.05 73.9-26.2 73.9-22.3L73.9-22.3Q73.9-18.45 72.05-15.58 70.2-12.7 66.77-11.18 63.35-9.65 58.7-9.65L58.7-9.65 51.65-9.65 51.65 0 43.55 0 43.55-35 58.7-35ZM58.25-16.25Q61.9-16.25 63.8-17.82 65.7-19.4 65.7-22.3L65.7-22.3Q65.7-25.25 63.8-26.83 61.9-28.4 58.25-28.4L58.25-28.4 51.65-28.4 51.65-16.25 58.25-16.25ZM103.8-7.8L103.8-18.05 111.2-18.05 111.2-3.85Q108.34-1.7 104.59-0.55 100.84 0.6 97.05 0.6L97.05 0.6Q91.59 0.6 87.25-1.73 82.9-4.05 80.42-8.18 77.95-12.3 77.95-17.5L77.95-17.5Q77.95-22.7 80.42-26.83 82.9-30.95 87.3-33.27 91.7-35.6 97.2-35.6L97.2-35.6Q101.8-35.6 105.55-34.05 109.3-32.5 111.84-29.55L111.84-29.55 106.65-24.75Q102.9-28.7 97.59-28.7L97.59-28.7Q94.25-28.7 91.65-27.3 89.05-25.9 87.59-23.35 86.15-20.8 86.15-17.5L86.15-17.5Q86.15-14.25 87.59-11.7 89.05-9.15 91.62-7.73 94.2-6.3 97.5-6.3L97.5-6.3Q101-6.3 103.8-7.8L103.8-7.8ZM149.69 0L140.99 0 134.24-9.75 133.84-9.75 126.79-9.75 126.79 0 118.69 0 118.69-35 133.84-35Q138.49-35 141.92-33.45 145.34-31.9 147.19-29.05 149.04-26.2 149.04-22.3L149.04-22.3Q149.04-18.4 147.17-15.58 145.29-12.75 141.84-11.25L141.84-11.25 149.69 0ZM140.84-22.3Q140.84-25.25 138.94-26.83 137.04-28.4 133.39-28.4L133.39-28.4 126.79-28.4 126.79-16.2 133.39-16.2Q137.04-16.2 138.94-17.8 140.84-19.4 140.84-22.3L140.84-22.3ZM181.59 0L178.49-7.5 162.24-7.5 159.14 0 150.84 0 166.44-35 174.44-35 190.09 0 181.59 0ZM164.84-13.65L175.94-13.65 170.39-27.05 164.84-13.65ZM193.74 0L193.74-35 209.64-35Q215.34-35 219.71-32.83 224.09-30.65 226.51-26.7 228.94-22.75 228.94-17.5L228.94-17.5Q228.94-12.25 226.51-8.3 224.09-4.35 219.71-2.18 215.34 0 209.64 0L209.64 0 193.74 0ZM201.84-6.65L209.24-6.65Q214.49-6.65 217.61-9.58 220.74-12.5 220.74-17.5L220.74-17.5Q220.74-22.5 217.61-25.43 214.49-28.35 209.24-28.35L209.24-28.35 201.84-28.35 201.84-6.65ZM235.04 0L235.04-35 243.14-35 243.14 0 235.04 0ZM277.88-28.5L259.53-28.5 259.53-19.25 275.73-19.25 275.73-12.75 259.53-12.75 259.53 0 251.43 0 251.43-35 277.88-35 277.88-28.5ZM313.78-35L300.18-12.4 300.18 0 292.08 0 292.08-12.5 278.53-35 287.13-35 296.48-19.45 305.83-35 313.78-35Z" opacity="1" transform="matrix(1,0,0,1,0,0)" fill="#8bc9fc" class="undefined-text-0" data-fill-palette-color="primary" id="text-0"></path></svg></g></svg></g></svg></g></svg></g><g></g></svg></g><defs></defs></svg><rect width="395.52" height="46.193979674140984" fill="none" stroke="none" visibility="hidden"></rect></g></svg></g></svg>